<svg width="143" height="174" viewBox="0 0 143 174" fill="none" xmlns="http://www.w3.org/2000/svg">
<path fill-rule="evenodd" clip-rule="evenodd" d="M58.1915 24.0901C58.1915 24.0901 50.5752 29.6183 50.0375 36.0758C49.4997 42.5333 57.3252 47.5733 57.3252 47.5733L76.5605 38.7173L58.1915 24.0901Z" fill="#FFB200"/>
<path fill-rule="evenodd" clip-rule="evenodd" d="M97.8657 65.6071C97.8657 50.944 85.9789 39.0571 71.3157 39.0571C56.6526 39.0571 44.7657 50.944 44.7657 65.6071H97.8657Z" fill="#02A0FC"/>
<path fill-rule="evenodd" clip-rule="evenodd" d="M74.2251 43.9645L73.7503 30.523C73.7503 30.523 78.9433 27.85 77.9961 24.124C77.0488 20.398 73.2463 22.0698 73.2463 22.0698C73.2463 22.0698 71.4193 16.9623 65.9091 16.5798C60.3988 16.1973 57.3973 22.54 57.8091 26.9298C58.4211 33.403 61.6026 36.4315 68.0781 34.9533L67.8531 42.484" fill="#FF3A29"/>
<path d="M61.5463 26.8193L60.4775 29.7376" stroke="black" stroke-width="0.675"/>
<path d="M65.7583 25.9353L62.6533 25.8161" stroke="black" stroke-width="0.675"/>
<path d="M58.8621 25.9556L60.7431 25.7958" stroke="black" stroke-width="0.675"/>
<path fill-rule="evenodd" clip-rule="evenodd" d="M74.0563 39.1968C67.9318 38.3755 70.7173 21.253 70.7173 21.253C64.811 24.7023 58.1915 23.161 58.1915 23.161C58.1915 23.161 59.87 13.9135 69.8915 15.0385C79.913 16.1635 82.1225 22.5738 82.1225 22.5738C82.1225 22.5738 92.837 25.1658 92.9833 33.8238C93.1295 42.4818 86.6833 43.9623 86.6833 43.9623C86.6833 43.9623 80.7613 40.0968 74.0563 39.1968Z" fill="#FFB200"/>
<path d="M41.2355 63.5665C41.2355 63.5665 14.375 65.506 10.9595 59.044C7.54402 52.582 11.6975 16.9105 11.6975 16.9105C11.6975 16.9105 7.63627 7.16796 9.67252 5.96646C11.7088 4.76496 15.2975 14.368 15.2975 14.368C15.2975 14.368 12.989 0.982706 15.113 0.890456C17.237 0.798206 20.0045 12.0595 20.0045 12.0595C20.0045 12.0595 22.2545 6.92721 27.5285 8.25246C31.3828 9.21996 32.3278 13.2812 31.007 13.9112C29.1125 14.8112 27.7693 12.0415 25.7285 12.7975C24.1805 13.369 23.9285 15.2207 24.4865 16.5437C25.2515 18.355 27.0808 19.0975 28.7053 17.851C30.1408 16.7507 29.3803 14.7122 31.007 13.9112C32.9465 12.9595 34.8725 17.4685 32.132 21.0257C29.5693 24.3467 23.7035 23.584 23.7035 23.584L23.492 46.291L44.264 47.0762" stroke="black" stroke-width="0.675"/>
<path d="M101.396 63.5665C101.396 63.5665 128.259 65.506 131.672 59.044C135.085 52.582 130.934 16.9105 130.934 16.9105C130.934 16.9105 134.984 7.16796 132.959 5.96646C130.934 4.76496 127.334 14.368 127.334 14.368C127.334 14.368 129.642 0.982706 127.518 0.890456C125.394 0.798206 122.627 12.0595 122.627 12.0595C122.627 12.0595 120.377 6.92721 115.103 8.25246C111.251 9.21996 110.304 13.2812 111.624 13.9112C113.519 14.8112 114.862 12.0415 116.903 12.7975C118.451 13.369 118.703 15.2207 118.145 16.5437C117.38 18.355 115.553 19.0975 113.926 17.851C112.491 16.7485 113.251 14.7122 111.624 13.9112C109.685 12.9595 107.759 17.4685 110.499 21.0235C113.062 24.3467 118.703 23.35 118.703 23.35L118.914 46.057L98.1425 46.8422" stroke="black" stroke-width="0.675"/>
<path fill-rule="evenodd" clip-rule="evenodd" d="M89.1178 81.6833C78.1105 75.2911 64.521 75.2911 53.5138 81.6833C41.8655 88.4491 26.0435 97.7146 10.469 106.856C-6.89649 117.049 -0.888987 143.531 19.1743 145.235L62.2775 148.891L68.0893 171.328C68.951 174.658 73.6805 174.658 74.5423 171.328L80.3563 148.891L123.457 145.235C143.523 143.531 149.528 117.049 132.163 106.856C116.588 97.7146 100.766 88.4491 89.1178 81.6833ZM36.389 121.337L61.364 111.955C67.7766 109.545 74.8459 109.545 81.2585 111.955L106.234 121.337H36.389Z" fill="#FF3A29"/>
<path d="M71.3157 173.825V121.337" stroke="white" stroke-width="0.675"/>
</svg>
